<svg version="1.2" xmlns="http://www.w3.org/2000/svg" viewBox="0 0 127 127" width="127" height="127">
	<title>logo</title>
	<style>
		.s0 { fill: #000000 } 
	</style>
	<g>
		<path class="s0" d="m32.7 114.5l-6.5-6.5 18.8-18.8c10.4-10.3 18.8-18.8 18.8-18.8-0.1-0.1-1.3-0.2-2.9-0.4-12.6-1.5-23.9-6.5-32.7-14.6l-2-1.8 6.6-6.7 6.7-6.6 1.2 1c6 5.2 12.4 8.3 19.7 9.6 3.7 0.7 11.6 0.4 15-0.4 6.6-1.7 11.6-4.2 16.6-8.5l2.1-1.7 6.6 6.6 6.6 6.6-33.8 33.7c-18.5 18.6-33.8 33.8-34 33.8-0.2 0-3.2-2.9-6.8-6.5zm13.9-80.8c-4.7-1.2-8.5-4.5-10.2-8.9-0.9-2.5-1.1-6.4-0.3-9 2.7-8.8 12.3-12.8 20.6-8.6 3.4 1.7 6.5 6.1 7.2 10.3 1.7 9.8-7.6 18.5-17.3 16.2zm34.2 0.1c-0.8-0.1-2.3-0.7-3.5-1.3-5.1-2.5-8.3-8.2-7.8-13.9 0.7-7.4 6.8-13.1 14.2-13.1 8 0 14.3 6.3 14.3 14.3 0 5-2.6 9.6-7 12.3-2.5 1.5-7.3 2.3-10.2 1.7z"/>
	</g>
</svg>