<svg xmlns="http://www.w3.org/2000/svg" width="100%" height="100%" viewBox="0 0 343 434">
<g>
<path d="M 66.24 392.74 L 44.01 370.49 L 108.46 306.04 C143.91,270.59 172.83,241.50 172.71,241.39 C172.59,241.28 168.23,240.69 163.00,240.08 C119.54,234.97 81.06,217.79 50.67,189.94 L 43.84 183.68 L 66.60 160.90 L 89.35 138.13 L 93.43 141.64 C114.26,159.59 136.20,170.25 161.28,174.61 C174.02,176.83 201.07,176.06 212.60,173.15 C235.41,167.39 252.31,158.82 269.61,144.22 L 276.73 138.21 L 299.36 160.86 L 321.99 183.51 L 206.25 299.25 C142.58,362.91 90.04,415.00 89.49,415.00 C88.94,415.00 78.48,404.99 66.24,392.74 ZM 113.82 115.46 C97.81,111.57 84.63,100.15 78.94,85.22 C75.63,76.53 75.15,63.15 77.83,54.32 C87.02,24.09 119.95,10.31 148.50,24.75 C160.23,30.68 170.76,45.73 173.22,60.07 C179.00,93.77 147.09,123.53 113.82,115.46 ZM 231.00 115.97 C228.52,115.46 223.23,113.42 219.23,111.45 C201.57,102.75 190.62,83.30 192.39,63.80 C194.71,38.38 215.70,19.00 240.92,19.00 C268.36,19.00 290.00,40.64 290.00,68.08 C290.00,85.18 281.10,100.78 266.00,110.14 C257.51,115.41 241.26,118.11 231.00,115.97 Z" fill="#fff"/>
</g>
</svg>