<svg xmlns="http://www.w3.org/2000/svg" width="1024" height="1024" viewBox="0 0 1024 1024">
<g>
<path d="M 419.16 775.08 C387.07,806.94 360.36,833.00 359.81,833.00 C356.94,833.00 287.92,763.36 288.27,760.82 C288.40,759.89 328.96,718.49 378.40,668.82 C384.61,662.58 390.49,656.68 396.04,651.09 C487.83,558.88 493.49,553.20 492.80,552.28 C492.71,552.16 492.52,552.12 492.39,551.99 C491.82,551.42 484.86,550.08 476.93,549.01 C434.12,543.23 400.68,533.10 365.67,515.28 C341.29,502.87 320.17,488.33 298.25,468.86 C292.06,463.37 287.00,458.35 287.00,457.72 C287.00,456.05 358.20,385.00 359.87,385.00 C360.64,385.00 364.03,387.39 367.39,390.32 C399.14,417.95 439.14,436.99 479.01,443.45 C491.54,445.49 524.21,445.50 541.51,443.48 C562.28,441.06 583.45,434.56 606.73,423.46 C621.93,416.21 631.58,409.97 648.50,396.43 C655.10,391.14 661.35,386.36 662.38,385.81 C664.00,384.93 666.54,387.06 680.67,401.14 C723.95,444.30 735.50,456.18 735.50,457.52 C735.50,458.90 543.68,651.46 419.16,775.08 ZM 432.83 347.05 C421.20,349.45 409.79,349.42 399.81,346.96 C375.10,340.89 354.45,323.90 344.54,301.49 C341.33,294.23 340.13,289.16 338.93,277.69 C335.02,240.48 356.36,207.24 392.50,194.23 C405.07,189.71 423.45,189.37 438.46,193.40 C453.76,197.50 461.54,201.69 470.74,210.81 C483.70,223.64 491.89,238.89 495.55,256.96 C503.48,296.12 473.92,338.57 432.83,347.05 ZM 617.16 347.48 C601.71,349.80 591.38,349.08 580.84,344.95 C547.56,331.92 527.08,303.56 527.02,270.43 C526.96,238.40 543.58,211.91 572.50,197.97 C591.84,188.65 614.00,187.95 634.81,196.00 C673.27,210.87 693.71,254.22 681.06,294.11 C674.12,316.00 654.93,336.47 634.90,343.34 C630.72,344.78 622.74,346.64 617.16,347.48 Z" fill="rgb(254,254,254)"/>
<path d="M 0.00 512.00 L 0.00 0.00 L 512.00 0.00 L 1024.00 0.00 L 1024.00 512.00 L 1024.00 1024.00 L 512.00 1024.00 L 0.00 1024.00 L 0.00 512.00 ZM 419.16 775.08 C543.68,651.46 735.50,458.90 735.50,457.52 C735.50,456.18 723.95,444.30 680.67,401.14 C666.54,387.06 664.00,384.93 662.38,385.81 C661.35,386.36 655.10,391.14 648.50,396.43 C631.58,409.97 621.93,416.21 606.73,423.46 C583.45,434.56 562.28,441.06 541.51,443.48 C524.21,445.50 491.54,445.49 479.01,443.45 C439.14,436.99 399.14,417.95 367.39,390.32 C364.03,387.39 360.64,385.00 359.87,385.00 C358.20,385.00 287.00,456.05 287.00,457.72 C287.00,458.35 292.06,463.37 298.25,468.86 C320.17,488.33 341.29,502.87 365.67,515.28 C400.68,533.10 434.12,543.23 476.93,549.01 C484.86,550.08 491.82,551.42 492.39,551.99 C493.61,553.21 500.06,546.59 378.40,668.82 C328.96,718.49 288.40,759.89 288.27,760.82 C287.92,763.36 356.94,833.00 359.81,833.00 C360.36,833.00 387.07,806.94 419.16,775.08 ZM 432.83 347.05 C473.92,338.57 503.48,296.12 495.55,256.96 C491.89,238.89 483.70,223.64 470.74,210.81 C461.54,201.69 453.76,197.50 438.46,193.40 C423.45,189.37 405.07,189.71 392.50,194.23 C356.36,207.24 335.02,240.48 338.93,277.69 C340.13,289.16 341.33,294.23 344.54,301.49 C354.45,323.90 375.10,340.89 399.81,346.96 C409.79,349.42 421.20,349.45 432.83,347.05 ZM 617.16 347.48 C622.74,346.64 630.72,344.78 634.90,343.34 C654.93,336.47 674.12,316.00 681.06,294.11 C693.71,254.22 673.27,210.87 634.81,196.00 C614.00,187.95 591.84,188.65 572.50,197.97 C543.58,211.91 526.96,238.40 527.02,270.43 C527.08,303.56 547.56,331.92 580.84,344.95 C591.38,349.08 601.71,349.80 617.16,347.48 Z" fill="rgb(241,242,246)"/>
</g>
</svg>